<svg xmlns="http://www.w3.org/2000/svg" width="26.807" height="26.431" viewBox="0 0 26.807 26.431">
  <path id="comment-alt-dots" d="M22.338,0H4.468A4.472,4.472,0,0,0,0,4.468v13.4a4.472,4.472,0,0,0,4.468,4.468H7.732l4.187,3.526a2.246,2.246,0,0,0,1.493.566,2.167,2.167,0,0,0,1.443-.541l4.3-3.552h3.185a4.472,4.472,0,0,0,4.468-4.468V4.468A4.472,4.472,0,0,0,22.339,0ZM7.818,13.4a1.675,1.675,0,1,1,1.675-1.675A1.676,1.676,0,0,1,7.818,13.4Zm5.585,0a1.675,1.675,0,1,1,1.675-1.675A1.676,1.676,0,0,1,13.4,13.4Zm5.585,0a1.675,1.675,0,1,1,1.675-1.675A1.676,1.676,0,0,1,18.988,13.4Z" fill="#fff"/>
</svg>
