<svg xmlns="http://www.w3.org/2000/svg" width="19.746" height="19.675" viewBox="0 0 19.746 19.675">
  <path id="heart-slash_1_" data-name="heart-slash (1)" d="M19.746,6.257A5.354,5.354,0,0,0,14.4.909,5.33,5.33,0,0,0,9.873,3.658,5.33,5.33,0,0,0,5.348.909a5.321,5.321,0,0,0-2.6.687L1.2.043.035,1.206,18.547,19.718l1.163-1.163-4.23-4.23c2.819-2.964,4.265-5.679,4.265-8.068ZM3.98,2.825a3.7,3.7,0,0,1,1.367-.271,4.028,4.028,0,0,1,3.7,4.114H10.7a4.028,4.028,0,0,1,3.7-4.114,3.707,3.707,0,0,1,3.7,3.7c0,1.921-1.315,4.3-3.783,6.9Zm7.954,12.608L13.1,16.6c-1.139.989-2.142,1.742-2.751,2.177l-.478.341-.478-.341C7.826,17.656,0,11.786,0,6.257A5.333,5.333,0,0,1,.507,4.005L1.78,5.279a3.7,3.7,0,0,0-.135.979c0,3.518,4.326,7.946,8.227,10.833.515-.383,1.247-.954,2.063-1.657Z" transform="translate(0 -0.043)" fill="rgba(17,45,74,0.28)"/>
</svg>
