<svg xmlns="http://www.w3.org/2000/svg" width="28.352" height="26.44" viewBox="0 0 28.352 26.44">
  <path id="Path_53" data-name="Path 53" d="M20.666.917a7.557,7.557,0,0,0-6.495,3.9A7.557,7.557,0,0,0,7.676.917,8.03,8.03,0,0,0,0,9.242c0,8,12.937,17.24,13.488,17.632l.683.483.683-.483c.55-.39,13.488-9.632,13.488-17.632A8.03,8.03,0,0,0,20.666.917ZM14.171,24.45C10.33,21.581,2.363,14.531,2.363,9.242A5.668,5.668,0,0,1,7.676,3.279,5.668,5.668,0,0,1,12.99,9.242h2.362a5.668,5.668,0,0,1,5.314-5.963A5.668,5.668,0,0,1,25.98,9.242C25.98,14.533,18.012,21.581,14.171,24.45Z" transform="translate(0.005 -0.917)" fill="#fff"/>
</svg>
