<svg xmlns="http://www.w3.org/2000/svg" width="28.764" height="28.764" viewBox="0 0 28.764 28.764">
  <g id="question-mark" transform="translate(1.405 1.405)">
    <path id="Path_40" data-name="Path 40" d="M12.977-1.4A14.382,14.382,0,1,0,27.359,12.977,14.376,14.376,0,0,0,12.977-1.4ZM14.27,20.42a2.009,2.009,0,0,1-1.419.5,2.009,2.009,0,0,1-1.419-.5,1.7,1.7,0,0,1-.568-1.293,1.608,1.608,0,0,1,.568-1.293,2.009,2.009,0,0,1,1.419-.5,2.009,2.009,0,0,1,1.419.5,1.7,1.7,0,0,1,.568,1.293A1.608,1.608,0,0,1,14.27,20.42Zm3.375-9.556a5.641,5.641,0,0,1-1.135,1.482l-1.23,1.135a2.98,2.98,0,0,0-.725,1.041,3.918,3.918,0,0,0-.221,1.356H11.274a7.284,7.284,0,0,1,.347-2.46,3.962,3.962,0,0,1,1.135-1.577,6.133,6.133,0,0,0,1.2-1.23,1.991,1.991,0,0,0,.41-1.23c0-1.072-.473-1.609-1.388-1.609a1.26,1.26,0,0,0-1.041.473,1.951,1.951,0,0,0-.41,1.262H7.9A4.3,4.3,0,0,1,9.255,6.164a5.439,5.439,0,0,1,3.722-1.2A5.693,5.693,0,0,1,16.7,6.07a3.875,3.875,0,0,1,1.325,3.154,3.584,3.584,0,0,1-.378,1.64Z" transform="translate(0 0)" fill="#fff"/>
  </g>
</svg>
