<svg id="sad" xmlns="http://www.w3.org/2000/svg" width="50.406" height="50.406" viewBox="0 0 50.406 50.406">
  <path id="Path_68" data-name="Path 68" d="M123.652,304.934c.452-.335,11.19-8.117,22.074,0l1.883-2.526c-12.8-9.547-25.714-.094-25.843,0Z" transform="translate(-109.24 -267.474)" fill="rgba(17,45,74,0.28)"/>
  <path id="Path_69" data-name="Path 69" d="M118.746,139.166l2.909-2.909,2.909,2.909,2.227-2.227-2.909-2.909,2.909-2.909-2.227-2.227-2.909,2.909-2.909-2.909-2.227,2.227,2.909,2.909-2.909,2.909Z" transform="translate(-104.533 -115.634)" fill="rgba(17,45,74,0.28)"/>
  <path id="Path_70" data-name="Path 70" d="M275.848,139.166l2.909-2.909,2.909,2.909,2.227-2.227-2.909-2.909,2.909-2.909-2.227-2.227-2.909,2.909-2.909-2.909-2.227,2.227,2.909,2.909-2.909,2.909Z" transform="translate(-245.474 -115.634)" fill="rgba(17,45,74,0.28)"/>
  <path id="Path_71" data-name="Path 71" d="M7.107,50.406H43.3A7.116,7.116,0,0,0,50.406,43.3V7.107A7.115,7.115,0,0,0,43.3,0H7.107A7.115,7.115,0,0,0,0,7.107V43.3A7.116,7.116,0,0,0,7.107,50.406ZM3.15,7.107A3.961,3.961,0,0,1,7.107,3.15H43.3a3.961,3.961,0,0,1,3.956,3.956V43.3A3.961,3.961,0,0,1,43.3,47.256H7.107A3.961,3.961,0,0,1,3.15,43.3Z" fill="rgba(17,45,74,0.28)"/>
</svg>
