<svg xmlns="http://www.w3.org/2000/svg" width="24.962" height="25.187" viewBox="0 0 24.962 25.187">
  <path id="settings" d="M22.033,12.593a9.6,9.6,0,0,0-.157-1.726l3.193-1.842L21.921,3.568,18.726,5.414a9.445,9.445,0,0,0-2.99-1.727V0H9.44V3.687A9.445,9.445,0,0,0,6.45,5.414L3.255,3.568.107,9.025,3.3,10.867a9.55,9.55,0,0,0,0,3.453L.107,16.162l3.148,5.457L6.45,19.774A9.445,9.445,0,0,0,9.44,21.5v3.687h6.3V21.5a9.445,9.445,0,0,0,2.99-1.727l3.195,1.846,3.148-5.457L21.876,14.32A9.6,9.6,0,0,0,22.033,12.593Zm-6.3,0a3.148,3.148,0,1,1-3.148-3.148A3.148,3.148,0,0,1,15.737,12.593Z" transform="translate(-0.107)" fill="#fff" opacity="0.799"/>
</svg>
